<?xml version="1.0" encoding="utf-8"?>
<!-- Generator: Adobe Illustrator 22.0.1, SVG Export Plug-In . SVG Version: 6.00 Build 0)  -->
<svg version="1.1" id="Ebene_1" xmlns="http://www.w3.org/2000/svg" xmlns:xlink="http://www.w3.org/1999/xlink" x="0px" y="0px"
	 viewBox="0 0 186 186" style="enable-background:new 0 0 186 186;" xml:space="preserve">
<style type="text/css">
	.st0{clip-path:url(#SVGID_2_);}
	.st1{fill:#FFFFFF;}
</style>
<g>
	<defs>
		<rect id="SVGID_1_" width="186" height="186"/>
	</defs>
	<clipPath id="SVGID_2_">
		<use xlink:href="#SVGID_1_"  style="overflow:visible;"/>
	</clipPath>
	<g id="Angebote" class="st0">
		<g id="Symbol_3_2" transform="translate(-625.224 1025.679)">
			<g id="Gruppe_523" transform="translate(858.08 483.265)">
				<g transform="matrix(1, 0, 0, 1, -232.86, -1508.94)">
					<path id="Pfad_203-2" class="st1" d="M175.1,45.7l-60.2-34.7c-0.4-0.2-0.9-0.2-1.3,0l-60,34.7c-0.5,0.2-0.8,0.7-0.7,1.3v91.5
						c-0.1,0.5,0.2,0.9,0.7,1.1l60,34.7c0.2,0.2,0.4,0.2,0.7,0.2s0.5,0,0.7-0.2l60-34.7c0.4-0.2,0.7-0.6,0.7-1.1V47
						C175.6,46.5,175.4,45.9,175.1,45.7z M114.3,13.8l57.4,33.1l-2.5,1.6L114.7,17c-0.3-0.2-0.6-0.2-0.9,0L59.3,48.4L56.8,47
						L114.3,13.8z M112.9,170.8l-57.4-33.2V49.3l57.4,33.1V170.8z M114.3,80.1L61.1,49.3l53.2-30.6l53.1,30.7L114.3,80.1z
						 M172.9,137.6l-57.4,33.2V82.4l57.4-33.1V137.6z"/>
				</g>
				<g transform="matrix(1, 0, 0, 1, -232.86, -1508.94)">
					<path id="Pfad_204-2" class="st1" d="M159.5,131.3c0.2,0,0.4,0,0.4-0.2l8.2-4.6c0.3-0.1,0.4-0.4,0.4-0.7v-13
						c0-0.3-0.1-0.5-0.4-0.7c-0.3-0.2-0.6-0.2-0.9,0l-8.2,4.6c-0.3,0.1-0.4,0.4-0.4,0.7v13c0,0.3,0.1,0.5,0.4,0.7
						C159.1,131.3,159.3,131.4,159.5,131.3z M160.4,117.9l6.4-3.8v11.1l-6.4,3.6L160.4,117.9z"/>
				</g>
				<g transform="matrix(1, 0, 0, 1, -232.86, -1508.94)">
					<path id="Pfad_205-2" class="st1" d="M159,113.5c0.1,0,0.3,0.1,0.4,0.2c0,0,0.4,0,0.4-0.2l8.2-4.8c0.3-0.1,0.4-0.4,0.4-0.7v-13
						c0-0.3-0.1-0.5-0.4-0.7c-0.3-0.2-0.6-0.2-0.9,0l-8.2,4.6c-0.3,0.1-0.4,0.4-0.4,0.7v13C158.6,112.9,158.8,113.2,159,113.5z
						 M160.4,100.1l6.4-3.8v11.1l-6.4,3.8L160.4,100.1z"/>
				</g>
				<g transform="matrix(1, 0, 0, 1, -232.86, -1508.94)">
					<path id="Pfad_206-2" class="st1" d="M159.5,95.6c0.2,0,0.4,0,0.4-0.2l8.2-4.6c0.3-0.1,0.4-0.4,0.4-0.7V77
						c0-0.3-0.1-0.5-0.4-0.7c-0.3-0.2-0.6-0.2-0.9,0l-8.2,4.6c-0.3,0.1-0.4,0.4-0.4,0.7v13c0,0.3,0.1,0.5,0.4,0.7
						C159.1,95.6,159.3,95.6,159.5,95.6z M160.4,82.2l6.4-3.8v11.1l-6.4,3.8L160.4,82.2z"/>
				</g>
				<g transform="matrix(1, 0, 0, 1, -232.86, -1508.94)">
					<path id="Pfad_207-2" class="st1" d="M159.5,77.9c0.2,0,0.4,0,0.4-0.2l8.2-4.6c0.3-0.1,0.4-0.4,0.4-0.7V59.1
						c0-0.3-0.1-0.5-0.4-0.7c-0.3-0.2-0.6-0.2-0.9,0l-8.2,4.6c-0.3,0.1-0.4,0.4-0.4,0.7V77c0,0.3,0.1,0.5,0.4,0.7
						C159.2,77.7,159.4,77.9,159.5,77.9z M160.4,64.5l6.4-3.8v10.9l-6.4,3.8V64.5z"/>
				</g>
				<g transform="matrix(1, 0, 0, 1, -232.86, -1508.94)">
					<path id="Pfad_208-2" class="st1" d="M146.7,138.8c0.2,0,0.4,0,0.4-0.2l8.2-4.8c0.3-0.1,0.4-0.4,0.4-0.7v-13
						c0-0.3-0.1-0.5-0.4-0.7c-0.3-0.2-0.6-0.2-0.9,0l-8.2,4.6c-0.3,0.1-0.4,0.4-0.4,0.7v13c0,0.3,0.1,0.5,0.4,0.7
						C146.3,138.7,146.5,138.8,146.7,138.8z M147.6,125.3l6.4-3.8v10.9l-6.4,3.9L147.6,125.3z"/>
				</g>
				<g transform="matrix(1, 0, 0, 1, -232.86, -1508.94)">
					<path id="Pfad_209-2" class="st1" d="M146.7,121c0.2,0,0.4,0,0.4-0.2l8.2-4.6c0.3-0.1,0.4-0.4,0.4-0.7v-13
						c0-0.3-0.1-0.5-0.4-0.7c-0.3-0.2-0.6-0.2-0.9,0l-8.2,4.6c-0.3,0.1-0.4,0.4-0.4,0.7v13c0,0.3,0.1,0.5,0.4,0.7
						C146.3,120.9,146.5,121,146.7,121z M147.6,107.6l6.4-3.8v10.9l-6.4,3.8L147.6,107.6z"/>
				</g>
				<g transform="matrix(1, 0, 0, 1, -232.86, -1508.94)">
					<path id="Pfad_210-2" class="st1" d="M146.7,103.1c0.2,0,0.4,0,0.4-0.2l8.2-4.6c0.3-0.1,0.4-0.4,0.4-0.7v-13
						c0-0.3-0.1-0.5-0.4-0.7c-0.3-0.2-0.6-0.2-0.9,0l-8.2,4.6c-0.3,0.1-0.4,0.4-0.4,0.7v13c0,0.3,0.1,0.5,0.4,0.7
						C146.3,103.1,146.5,103.1,146.7,103.1z M147.6,89.7l6.4-3.8v10.9l-6.4,3.8L147.6,89.7z"/>
				</g>
				<g transform="matrix(1, 0, 0, 1, -232.86, -1508.94)">
					<path id="Pfad_211-2" class="st1" d="M146.7,85.2c0.2,0,0.4,0,0.4-0.2l8.2-4.6c0.3-0.1,0.4-0.4,0.4-0.7v-13
						c0-0.3-0.1-0.5-0.4-0.7c-0.3-0.2-0.6-0.2-0.9,0l-8.2,4.6c-0.3,0.1-0.4,0.4-0.4,0.7v13c0,0.3,0.1,0.5,0.4,0.7
						C146.3,85.2,146.5,85.3,146.7,85.2z M147.6,71.8l6.4-3.8V79l-6.4,3.8L147.6,71.8z"/>
				</g>
				<g transform="matrix(1, 0, 0, 1, -232.86, -1508.94)">
					<path id="Pfad_212-2" class="st1" d="M133.8,146.2c0.2,0,0.4,0,0.4-0.2l8.2-4.6c0.3-0.1,0.4-0.4,0.4-0.7v-13
						c0-0.3-0.1-0.5-0.4-0.7c-0.3-0.2-0.6-0.2-0.9,0l-8.2,4.6c-0.3,0.1-0.4,0.4-0.4,0.7v13c0,0.3,0.1,0.5,0.4,0.7
						C133.4,146.1,133.6,146.2,133.8,146.2z M134.7,132.8l6.4-3.8v10.9l-6.4,3.8L134.7,132.8z"/>
				</g>
				<g transform="matrix(1, 0, 0, 1, -232.86, -1508.94)">
					<path id="Pfad_213-2" class="st1" d="M133.4,128.1c0.1,0,0.3,0.1,0.4,0.2c0,0,0.4,0,0.4-0.2l8.2-4.6c0.3-0.1,0.4-0.4,0.4-0.7
						v-13c0-0.3-0.1-0.5-0.4-0.7c-0.3-0.2-0.6-0.2-0.9,0l-8.2,4.6c-0.3,0.1-0.4,0.4-0.4,0.7v13C132.9,127.8,133.1,128.1,133.4,128.1
						z M134.7,114.9l6.4-3.8V122l-6.4,3.8V114.9z"/>
				</g>
				<g transform="matrix(1, 0, 0, 1, -232.86, -1508.94)">
					<path id="Pfad_214-2" class="st1" d="M133.8,110.4c0.2,0,0.4,0,0.4-0.2l8.2-4.6c0.3-0.1,0.4-0.4,0.4-0.7v-13
						c0-0.3-0.1-0.5-0.4-0.7c-0.3-0.2-0.6-0.2-0.9,0l-8.2,4.6c-0.3,0.1-0.4,0.4-0.4,0.7v13c0,0.3,0.1,0.5,0.4,0.7
						C133.4,110.4,133.6,110.5,133.8,110.4z M134.7,97l6.4-3.8v10.9l-6.4,3.8L134.7,97z"/>
				</g>
				<g transform="matrix(1, 0, 0, 1, -232.86, -1508.94)">
					<path id="Pfad_215-2" class="st1" d="M133.8,92.7c0.2,0,0.4,0,0.4-0.2l8.2-4.6c0.3-0.1,0.4-0.4,0.4-0.7v-13
						c0-0.3-0.1-0.5-0.4-0.7c-0.3-0.2-0.6-0.2-0.9,0l-8.2,4.6c-0.3,0.1-0.4,0.4-0.4,0.7v13c0,0.3,0.1,0.5,0.4,0.7
						C133.4,92.6,133.6,92.7,133.8,92.7z M134.7,79.3l6.4-3.8v10.9l-6.4,3.8L134.7,79.3z"/>
				</g>
				<g transform="matrix(1, 0, 0, 1, -232.86, -1508.94)">
					<path id="Pfad_216-2" class="st1" d="M120.6,153.5c0.1,0,0.3,0.1,0.4,0.2c0,0,0.4,0,0.4-0.2l8.2-4.8c0.3-0.1,0.4-0.4,0.4-0.7
						v-13c0-0.3-0.1-0.5-0.4-0.7c-0.3-0.2-0.6-0.2-0.9,0l-8.2,4.6c-0.3,0.1-0.4,0.4-0.4,0.7v13C120,153,120.2,153.3,120.6,153.5z
						 M121.8,140.1l6.4-3.8v11.1l-6.4,3.8V140.1z"/>
				</g>
				<g transform="matrix(1, 0, 0, 1, -232.86, -1508.94)">
					<path id="Pfad_217-2" class="st1" d="M120.9,135.8c0.2,0,0.4,0,0.4-0.2l8.2-4.6c0.3-0.1,0.4-0.4,0.4-0.7v-13
						c0-0.3-0.1-0.5-0.4-0.7c-0.3-0.2-0.6-0.2-0.9,0l-8.2,4.6c-0.3,0.1-0.4,0.4-0.4,0.7v13c0,0.3,0.1,0.5,0.4,0.7
						C120.6,135.6,120.8,135.8,120.9,135.8z M121.8,122.4l6.4-3.8v10.9l-6.4,3.8L121.8,122.4z"/>
				</g>
				<g transform="matrix(1, 0, 0, 1, -232.86, -1508.94)">
					<path id="Pfad_218-2" class="st1" d="M120.6,117.8c0.1,0,0.3,0.1,0.4,0.2c0,0,0.4,0,0.4-0.2l8.2-4.6c0.3-0.1,0.4-0.4,0.4-0.7
						v-13c0-0.3-0.1-0.5-0.4-0.7c-0.3-0.2-0.6-0.2-0.9,0l-8.2,4.6c-0.3,0.1-0.4,0.4-0.4,0.7v13C120,117.4,120.2,117.6,120.6,117.8z
						 M121.8,104.5l6.4-3.8v10.9l-6.4,3.8V104.5z"/>
				</g>
				<g transform="matrix(1, 0, 0, 1, -232.86, -1508.94)">
					<path id="Pfad_219-2" class="st1" d="M120.9,100.1c0.2,0,0.4,0,0.4-0.2l8.2-4.8c0.3-0.1,0.4-0.4,0.4-0.7v-13
						c0-0.3-0.1-0.5-0.4-0.7c-0.3-0.2-0.6-0.2-0.9,0l-8.2,4.8c-0.3,0.1-0.4,0.4-0.4,0.7v13c0,0.3,0.1,0.5,0.4,0.7
						C120.5,100,120.7,100.1,120.9,100.1z M121.8,86.7l6.4-3.8v10.9l-6.4,3.8V86.7z"/>
				</g>
				<g transform="matrix(1, 0, 0, 1, -232.86, -1508.94)">
					<path id="Pfad_220-2" class="st1" d="M68.6,131.2c0.1,0,0.3,0.1,0.4,0.2c0,0,0.4,0,0.4-0.2c0.3-0.1,0.4-0.4,0.4-0.7v-13
						c0-0.3-0.1-0.5-0.4-0.7l-8.2-4.6c-0.3-0.2-0.6-0.2-0.9,0c-0.1,0.2-0.2,0.5-0.2,0.7v13c0,0.3,0.1,0.5,0.4,0.7L68.6,131.2z
						 M61.8,114.2l6.4,3.8v10.9l-6.4-3.6V114.2z"/>
				</g>
				<g transform="matrix(1, 0, 0, 1, -232.86, -1508.94)">
					<path id="Pfad_221-2" class="st1" d="M68.6,113.5c0.1,0,0.3,0.1,0.4,0.2c0,0,0.4,0,0.4-0.2c0.3-0.1,0.4-0.4,0.4-0.7v-13
						c0-0.3-0.1-0.5-0.4-0.7l-8.2-4.6c-0.3-0.2-0.6-0.2-0.9,0c0-0.2-0.2,0.2-0.2,0.5v13c0,0.3,0.1,0.5,0.4,0.7L68.6,113.5z
						 M61.8,96.5l6.4,3.8v10.9l-6.4-3.8V96.5z"/>
				</g>
				<g transform="matrix(1, 0, 0, 1, -232.86, -1508.94)">
					<path id="Pfad_222-2" class="st1" d="M68.6,95.6c0.1,0,0.3,0.1,0.4,0.2c0,0,0.4,0,0.4-0.2c0.3-0.1,0.4-0.4,0.4-0.7v-13
						c0-0.3-0.1-0.5-0.4-0.7l-8.2-4.6c-0.3-0.2-0.6-0.2-0.9,0C59.8,76.7,60,76.7,60,77v13c0,0.3,0.1,0.5,0.4,0.7L68.6,95.6z
						 M61.8,78.6l6.4,3.8v10.9l-6.4-3.8V78.6z"/>
				</g>
				<g transform="matrix(1, 0, 0, 1, -232.86, -1508.94)">
					<path id="Pfad_223-2" class="st1" d="M68.6,77.7c0.1,0,0.3,0.1,0.4,0.2c0,0,0.4,0,0.4-0.2c0.3-0.1,0.4-0.4,0.4-0.7V64
						c0-0.3-0.1-0.5-0.4-0.7l-8.2-4.6c-0.3-0.2-0.6-0.2-0.9,0C59.8,58.8,60,59,60,59.1v13c0,0.3,0.1,0.5,0.4,0.7L68.6,77.7z
						 M61.8,60.7l6.4,3.8v10.9l-6.4-3.8V60.7z"/>
				</g>
				<g transform="matrix(1, 0, 0, 1, -232.86, -1508.94)">
					<path id="Pfad_224-2" class="st1" d="M81.4,138.7c0.1,0,0.3,0.1,0.4,0.2c0.2,0,0.4,0,0.4-0.2c0.2-0.2,0.3-0.4,0.4-0.7v-13
						c0-0.3-0.1-0.5-0.4-0.7l-8.2-4.6c-0.3-0.2-0.6-0.2-0.9,0c-0.3,0.1-0.4,0.4-0.4,0.7v13c0,0.3,0.1,0.5,0.4,0.7L81.4,138.7z
						 M74.7,121.7l6.4,3.8v10.9l-6.4-3.8V121.7z"/>
				</g>
				<g transform="matrix(1, 0, 0, 1, -232.86, -1508.94)">
					<path id="Pfad_225-2" class="st1" d="M81.4,120.8c0.1,0,0.3,0.1,0.4,0.2c0.2,0,0.4,0,0.4-0.2c0.2-0.2,0.3-0.4,0.4-0.7v-13
						c0-0.3-0.1-0.5-0.4-0.7l-8.2-4.6c-0.3-0.2-0.6-0.2-0.9,0c-0.3,0.1-0.4,0.4-0.4,0.7v13c0,0.3,0.1,0.5,0.4,0.7L81.4,120.8z
						 M74.7,103.8l6.4,3.8v10.9l-6.4-3.8V103.8z"/>
				</g>
				<g transform="matrix(1, 0, 0, 1, -232.86, -1508.94)">
					<path id="Pfad_226-2" class="st1" d="M81.4,102.9c0.1,0,0.3,0.1,0.4,0.2c0.2,0,0.4,0,0.4-0.2c0.2-0.2,0.3-0.4,0.4-0.7v-13
						c0-0.3-0.1-0.5-0.4-0.7l-8.2-4.6c-0.3-0.2-0.6-0.2-0.9,0c-0.3,0.1-0.4,0.4-0.4,0.7v13c0,0.3,0.1,0.5,0.4,0.7L81.4,102.9z
						 M74.7,85.9l6.4,3.8v10.9l-6.4-3.8V85.9z"/>
				</g>
				<g transform="matrix(1, 0, 0, 1, -232.86, -1508.94)">
					<path id="Pfad_227-2" class="st1" d="M81.4,85.1c0.1,0,0.3,0.1,0.4,0.2c0.2,0,0.4,0,0.4-0.2c0.2-0.2,0.3-0.4,0.4-0.7v-13
						c0-0.3-0.1-0.5-0.4-0.7l-8.2-4.6c-0.3-0.2-0.6-0.2-0.9,0c-0.3,0.1-0.4,0.4-0.4,0.7v13c0,0.3,0.1,0.5,0.4,0.7L81.4,85.1z
						 M74.7,68.1l6.4,3.8v10.9L74.7,79V68.1z"/>
				</g>
				<g transform="matrix(1, 0, 0, 1, -232.86, -1508.94)">
					<path id="Pfad_228-2" class="st1" d="M86.1,141.3l8.2,4.6c0.1,0,0.3,0.1,0.4,0.2c0,0,0.4,0,0.4-0.2c0.3-0.1,0.4-0.4,0.4-0.7
						v-13c0-0.3-0.1-0.5-0.4-0.7l-8.2-4.6c-0.3-0.2-0.6-0.2-0.9,0c-0.3,0.1-0.4,0.4-0.4,0.7v13C85.7,140.8,85.7,141.2,86.1,141.3z
						 M87.5,129l6.4,3.8v10.9l-6.4-3.8V129z"/>
				</g>
				<g transform="matrix(1, 0, 0, 1, -232.86, -1508.94)">
					<path id="Pfad_229-2" class="st1" d="M94.3,128.1c0.1,0,0.3,0.1,0.4,0.2c0,0,0.4,0,0.4-0.2c0.3-0.1,0.4-0.4,0.4-0.7v-13
						c0-0.3-0.1-0.5-0.4-0.7l-8.2-4.6c-0.3-0.2-0.6-0.2-0.9,0c-0.3,0.1-0.4,0.4-0.4,0.7v13c0,0.3,0.1,0.5,0.4,0.7L94.3,128.1z
						 M87.5,111.1l6.4,3.8v10.9l-6.4-3.8V111.1z"/>
				</g>
				<g transform="matrix(1, 0, 0, 1, -232.86, -1508.94)">
					<path id="Pfad_230-2" class="st1" d="M86.1,105.6l8.2,4.6c0.1,0,0.3,0.1,0.4,0.2c0,0,0.4,0,0.4-0.2c0.3-0.1,0.4-0.4,0.4-0.7
						v-13c0-0.3-0.1-0.5-0.4-0.7l-8.2-4.6c-0.3-0.2-0.6-0.2-0.9,0c-0.3,0.1-0.4,0.4-0.4,0.7v13C85.7,105.2,85.7,105.4,86.1,105.6z
						 M87.5,93.5l6.4,3.8v10.9l-6.4-3.8L87.5,93.5z"/>
				</g>
				<g transform="matrix(1, 0, 0, 1, -232.86, -1508.94)">
					<path id="Pfad_231-2" class="st1" d="M94.3,92.6c0.1,0,0.3,0.1,0.4,0.2c0,0,0.4,0,0.4-0.2c0.3-0.1,0.4-0.4,0.4-0.7v-13
						c0-0.3-0.1-0.5-0.4-0.7l-8.2-4.6c-0.3-0.2-0.6-0.2-0.9,0c-0.3,0.1-0.4,0.4-0.4,0.7v13c0,0.3,0.1,0.5,0.4,0.7L94.3,92.6z
						 M87.5,75.6l6.4,3.8v10.9l-6.4-3.8V75.6z"/>
				</g>
				<g transform="matrix(1, 0, 0, 1, -232.86, -1508.94)">
					<path id="Pfad_232-2" class="st1" d="M107.2,153.5c0.1,0,0.3,0.1,0.4,0.2c0,0,0.4,0,0.4-0.2c0.3-0.1,0.4-0.4,0.4-0.7v-13.2
						c0-0.3-0.1-0.5-0.4-0.7l-8-4.6c-0.3-0.2-0.6-0.2-0.9,0c-0.3,0.1-0.4,0.4-0.4,0.7v13c0,0.3,0.1,0.5,0.4,0.7L107.2,153.5z
						 M100.2,136.5l6.4,3.8v10.9l-6.4-3.8V136.5z"/>
				</g>
				<g transform="matrix(1, 0, 0, 1, -232.86, -1508.94)">
					<path id="Pfad_233-2" class="st1" d="M107.2,135.6c0.1,0,0.3,0.1,0.4,0.2c0,0,0.4,0,0.4-0.2c0.3-0.1,0.4-0.4,0.4-0.7v-13
						c0-0.3-0.1-0.5-0.4-0.7l-8-4.8c-0.3-0.2-0.6-0.2-0.9,0c-0.3,0.1-0.4,0.4-0.4,0.7v13c0,0.3,0.1,0.5,0.4,0.7L107.2,135.6z
						 M100.2,118.7l6.4,3.8v10.9l-6.4-3.8V118.7z"/>
				</g>
				<g transform="matrix(1, 0, 0, 1, -232.86, -1508.94)">
					<path id="Pfad_234-2" class="st1" d="M107.2,117.8c0.1,0,0.3,0.1,0.4,0.2c0,0,0.4,0,0.4-0.2c0.3-0.1,0.4-0.4,0.4-0.7v-13
						c0-0.3-0.1-0.5-0.4-0.7l-8-4.8c-0.3-0.2-0.6-0.2-0.9,0c-0.3,0.1-0.4,0.4-0.4,0.7v13c0,0.3,0.1,0.5,0.4,0.7L107.2,117.8z
						 M100.2,100.8l6.4,3.8v10.9l-6.4-3.8V100.8z"/>
				</g>
				<g transform="matrix(1, 0, 0, 1, -232.86, -1508.94)">
					<path id="Pfad_235-2" class="st1" d="M107.2,99.9c0.1,0,0.3,0.1,0.4,0.2c0,0,0.4,0,0.4-0.2c0.3-0.1,0.4-0.4,0.4-0.7v-13
						c0-0.3-0.1-0.5-0.4-0.7l-8-4.8c-0.3-0.2-0.6-0.2-0.9,0c-0.3,0.1-0.4,0.4-0.4,0.7v13c0,0.3,0.1,0.5,0.4,0.7L107.2,99.9z
						 M100.2,82.9l6.4,3.8v10.9l-6.4-3.8V82.9z"/>
				</g>
				<g transform="matrix(1, 0, 0, 1, -232.86, -1508.94)">
					<path id="Pfad_236-2" class="st1" d="M136.8,34.8l-15.9-9.1c-0.3-0.2-0.6-0.2-0.9,0l-15.9,9.1c-0.3,0.1-0.4,0.4-0.4,0.7v10.5
						c0,0.3,0.1,0.5,0.4,0.7l15.9,9.1c0.1,0,0.3,0.1,0.4,0.2c0,0,0.4,0,0.4-0.2l15.9-9.1c0.3-0.1,0.4-0.4,0.4-0.7V35.6
						C137.4,35.2,137.2,35,136.8,34.8z M119.7,53.8l-14.1-8.2V37l14.1,8.2V53.8z M120.6,43.8l-14.1-8.2l14.1-8.2l14.1,8.2
						L120.6,43.8z M135.6,45.6l-14.1,8.2v-8.6l14.1-8.2L135.6,45.6z"/>
				</g>
			</g>
		</g>
	</g>
</g>
</svg>
