<svg xmlns="http://www.w3.org/2000/svg" xmlns:xlink="http://www.w3.org/1999/xlink" viewBox="868 3095.407 48.967 48.967">
  <g id="Gruppe_maskieren_12" data-name="Gruppe maskieren 12" class="cls-2" transform="translate(-63 2329.407)">
    <path fill="#ffffff" id="heart4" class="cls-3" d="M47.967,16.941c0-7.767-5.3-13.066-13.066-13.066-4.129,0-7.844,2.781-10.418,5.615C21.91,6.656,18.2,3.875,14.066,3.875,6.3,3.875,1,9.173,1,16.941c0,4.129,1.781,6.844,4.615,9.418H5.591l14.3,15.3c1.53,1.53,3.06,3.06,4.591,3.06s3.06-1.53,4.591-3.06l14.278-15.3c2.834-2.574,4.615-5.286,4.615-9.418Zm-6.728,4.885L24.747,39.333l-.263.263c-.095-.092-.184-.181-.263-.263L7.728,21.829a7.866,7.866,0,0,1-2.608-5.885A7.954,7.954,0,0,1,13.066,8a7.866,7.866,0,0,1,5.885,2.608L24.484,15.6l5.533-4.992A7.855,7.855,0,0,1,35.9,8a7.954,7.954,0,0,1,7.945,7.945,7.866,7.866,0,0,1-2.608,5.885Z" transform="translate(931 766.185)"/>
  </g>
</svg>
